<?xml version="1.0" encoding="utf-8"?>
<!-- Generator: Adobe Illustrator 17.1.0, SVG Export Plug-In . SVG Version: 6.00 Build 0)  -->
<!DOCTYPE svg PUBLIC "-//W3C//DTD SVG 1.1//EN" "http://www.w3.org/Graphics/SVG/1.1/DTD/svg11.dtd">
<svg version="1.1" id="globe" xmlns="http://www.w3.org/2000/svg" xmlns:xlink="http://www.w3.org/1999/xlink" x="0px" y="0px"
	 viewBox="0 0 1024 1024" enable-background="new 0 0 1024 1024" xml:space="preserve">
<rect id="globe-label" fill="none" width="1024" height="1024"/>
<g id="globe-globe">
	<g>
		<path fill="#FFFFFF" d="M511.9932,768c-141.4004,0-256-114.5996-255.9864-256c-0.0283-141.3857,114.586-256,255.9999-256"/>
		<path fill="#0096E6" d="M511.9932,780.7998c-71.8077,0-139.3077-27.957-190.0718-78.7285
			C271.1504,651.3145,243.2002,583.7998,243.207,512c-0.0141-71.7998,27.9356-139.2998,78.7071-190.0713
			c50.7714-50.7715,118.2788-78.7285,190.0927-78.7285v25.5996c-64.9785,0-126.0566,25.2998-171.9922,71.2285
			C294.0859,385.9639,268.793,447.0356,268.8071,512c-0.0073,64.9717,25.2857,126.043,71.2144,171.9717
			c45.9287,45.9287,107,71.2285,171.9717,71.2285V780.7998L511.9932,780.7998z"/>
	</g>
	<g>
		<path fill="#D0E8F9" d="M512.0068,256C653.4004,256,768,370.6143,768,512c0,141.4004-114.6289,256.0283-256.0068,256"/>
		<path fill="#0096E6" d="M512.0498,780.7998c-0.0283,0-0.0352,0-0.0566,0v-25.5996c0.0214,0,0.0351,0,0.0498,0
			c64.9432,0,126-25.2861,171.9139-71.2148C729.9004,638.043,755.2002,576.9717,755.2002,512
			c0-134.1001-109.1006-243.2002-243.1934-243.2002v-25.5996c148.208,0,268.793,120.5854,268.793,268.7998
			c0,71.7998-27.957,139.3145-78.7432,190.0859C651.2998,752.8428,583.8145,780.7998,512.0498,780.7998L512.0498,780.7998z"/>
	</g>
	<g>
		<polygon fill="#0096E6" points="524.793,767.0713 499.1929,767.0713 499.1929,256.9355 524.793,256.9355 524.793,767.0713 		"/>
	</g>
	<g>
		<polygon fill="#0096E6" points="767.0566,524.7998 256.9214,524.7998 256.9214,499.2002 767.0566,499.2002 767.0566,524.7998 		
			"/>
	</g>
	<g>
		<path fill="#0096E6" d="M487.6289,777.1426C482.7217,773.2852,367.5361,680.8428,367.5361,512
			c0-168.8359,115.1856-261.2783,120.0928-265.1289l15.8281,20.1221C502.3574,267.8643,393.1357,355.9854,393.1357,512
			c0,156.5283,109.2071,244.1426,110.3072,245L487.6289,777.1426L487.6289,777.1426z"/>
	</g>
	<g>
		<path fill="#0096E6" d="M536.3711,777.1289l-15.835-20.1152c1.0996-0.8711,110.292-89,110.292-245.0137
			c0-156.5283-109.1777-244.1357-110.2783-245l15.8213-20.1289c4.9004,3.8506,120.0576,96.293,120.0576,265.1289
			C656.4287,680.8428,541.2715,773.2852,536.3711,777.1289L536.3711,777.1289z"/>
	</g>
	<g>
		<path fill="#0096E6" d="M511.9932,442.5142c-162.3716,0-207.0928-85.6997-208.9219-89.3428l22.8574-11.5357
			c1.5928,3.0782,40.6426,75.2784,186.0645,75.2784c145.4355,0,184.4638-72.2002,186.0498-75.2715l22.8574,11.5215
			C719.0859,356.8145,674.3857,442.5142,511.9932,442.5142L511.9932,442.5142z"/>
	</g>
	<g>
		<path fill="#0096E6" d="M325.9287,682.3574l-22.8574-11.5293c1.8291-3.6426,46.5503-89.3427,208.9219-89.3427
			c162.3925,0,207.0927,85.7001,208.9072,89.3427l-22.8858,11.4571c-1.5576-3-40.5859-75.1993-186.0214-75.1993
			C366.5713,607.0859,327.5215,679.2852,325.9287,682.3574L325.9287,682.3574z"/>
	</g>
</g>
</svg>
